<svg width="500" height="500" viewBox="0 0 500 500" fill="none" xmlns="http://www.w3.org/2000/svg">
<path d="M95.1553 24.238C96.2159 24.2351 97.2766 24.2321 98.3693 24.229C101.912 24.2204 105.454 24.2188 108.996 24.2174C111.541 24.2127 114.086 24.2077 116.631 24.2023C123.539 24.1892 130.446 24.1827 137.354 24.1783C141.674 24.1755 145.995 24.1713 150.316 24.1668C162.299 24.1546 174.282 24.1443 186.266 24.1409C187.032 24.1407 187.798 24.1405 188.587 24.1403C189.355 24.14 190.122 24.1398 190.913 24.1396C192.469 24.1391 194.024 24.1387 195.58 24.1383C196.352 24.138 197.123 24.1378 197.918 24.1376C210.403 24.1336 222.887 24.1162 235.372 24.0929C248.217 24.0691 261.062 24.0567 273.907 24.0556C281.108 24.0546 288.309 24.049 295.51 24.0307C302.291 24.0136 309.071 24.0121 315.852 24.0209C318.33 24.0216 320.807 24.0173 323.285 24.0074C341.091 23.9402 358.154 24.1546 374.399 32.3785C375.383 32.8709 376.366 33.3633 377.38 33.8707C396.01 43.9449 408.688 60.6226 415.462 80.4957C418.807 92.1087 418.679 103.786 418.749 115.769C418.766 117.842 418.793 119.915 418.831 121.988C418.886 125.004 418.908 128.019 418.922 131.035C418.945 131.953 418.968 132.871 418.991 133.816C418.97 140.168 417.561 144.502 413.399 149.378C409.562 152.107 406.156 152.94 401.419 152.722C397.888 152.121 395 150.849 392.399 148.378C388.351 142.584 387.843 138.278 387.93 131.308C387.92 129.871 387.92 129.871 387.909 128.405C387.88 124.337 387.896 120.269 387.908 116.201C387.921 100.164 387.158 86.8585 377.399 73.3785C376.843 72.8345 376.288 72.2905 375.715 71.73C374.399 70.3785 374.399 70.3785 374.399 68.3785C373.823 68.1078 373.247 67.8371 372.653 67.5582C370.379 66.3682 368.416 65.0037 366.337 63.5035C358.783 58.3971 349.902 55.2616 340.741 55.2471C339.829 55.2432 338.918 55.2394 337.978 55.2354C336.986 55.2363 335.993 55.2372 334.97 55.238C333.908 55.2351 332.847 55.2321 331.753 55.229C328.19 55.2204 324.626 55.2188 321.063 55.2174C318.51 55.2127 315.958 55.2077 313.405 55.2023C306.465 55.1892 299.524 55.1827 292.584 55.1783C288.247 55.1755 283.91 55.1713 279.572 55.1668C267.555 55.1546 255.537 55.1443 243.52 55.1409C242.751 55.1407 241.982 55.1405 241.19 55.1403C240.034 55.1399 240.034 55.1399 238.854 55.1396C237.293 55.1391 235.731 55.1387 234.17 55.1383C233.395 55.138 232.621 55.1378 231.823 55.1376C219.283 55.1336 206.743 55.1162 194.203 55.0929C181.316 55.0691 168.429 55.0567 155.542 55.0556C148.312 55.0546 141.082 55.0489 133.851 55.0307C127.046 55.0137 120.241 55.0121 113.436 55.0209C110.943 55.0216 108.45 55.0173 105.957 55.0074C102.544 54.9947 99.1306 55.0006 95.717 55.011C94.7399 55.0029 93.7627 54.9949 92.7559 54.9866C83.5923 55.0515 74.4234 56.7044 66.399 61.316C65.0997 62.0411 65.0997 62.0411 63.774 62.7808C61.3079 64.3289 61.3079 64.3289 59.2115 66.5699C57.399 68.3785 57.399 68.3785 55.399 68.3785C55.1283 68.9534 54.8576 69.5283 54.5787 70.1207C53.3844 72.4065 52.0192 74.4041 50.524 76.5035C45.2999 84.244 42.2829 92.3962 42.2648 101.768C42.2604 102.842 42.2559 103.917 42.2513 105.025C42.2515 106.2 42.2517 107.375 42.2519 108.585C42.2482 109.838 42.2445 111.091 42.2407 112.382C42.2307 115.857 42.227 119.332 42.2243 122.807C42.2204 126.557 42.2109 130.306 42.2021 134.056C42.1824 143.11 42.1723 152.164 42.1634 161.218C42.159 165.485 42.1537 169.752 42.1484 174.019C42.1314 188.209 42.1169 202.4 42.1097 216.59C42.1078 220.271 42.1058 223.952 42.1039 227.633C42.1034 228.548 42.1029 229.463 42.1024 230.406C42.0941 245.218 42.0688 260.03 42.0363 274.842C42.0032 290.06 41.9852 305.278 41.982 320.497C41.9799 329.037 41.9712 337.576 41.9456 346.116C41.9238 353.391 41.9158 360.666 41.9255 367.941C41.9301 371.649 41.9283 375.357 41.9088 379.064C41.8878 383.095 41.8982 387.125 41.9113 391.156C41.9003 392.313 41.8894 393.47 41.8781 394.662C41.9726 406.731 45.2919 417.561 52.399 427.378C52.9546 427.922 53.5102 428.466 54.0826 429.027C55.399 430.378 55.399 430.378 55.399 432.378C56.2634 432.785 56.2634 432.785 57.1451 433.199C59.4187 434.389 61.3822 435.753 63.4615 437.253C71.0151 442.36 79.8957 445.495 89.0569 445.51C89.9686 445.514 90.8803 445.518 91.8197 445.522C92.8125 445.521 93.8053 445.52 94.8281 445.519C95.8898 445.522 96.9514 445.525 98.0452 445.528C101.609 445.537 105.172 445.538 108.735 445.54C111.288 445.544 113.841 445.549 116.393 445.555C123.334 445.568 130.274 445.574 137.214 445.579C141.551 445.581 145.889 445.586 150.226 445.59C162.243 445.602 174.261 445.613 186.278 445.616C187.047 445.616 187.816 445.616 188.608 445.617C189.764 445.617 189.764 445.617 190.944 445.617C192.505 445.618 194.067 445.618 195.628 445.619C196.403 445.619 197.177 445.619 197.975 445.619C210.515 445.623 223.055 445.641 235.595 445.664C248.482 445.688 261.369 445.7 274.256 445.701C281.486 445.702 288.717 445.708 295.947 445.726C302.752 445.743 309.557 445.745 316.362 445.736C318.855 445.735 321.348 445.74 323.841 445.75C327.254 445.762 330.668 445.756 334.081 445.746C335.547 445.758 335.547 445.758 337.042 445.77C351.037 445.671 363.293 441.406 373.649 431.878C385.412 419.478 387.751 405.045 387.702 388.578C387.831 381.69 388.622 376.586 393.399 371.378C398.158 368.359 401.912 367.991 407.325 368.882C410.958 369.751 413.288 370.79 415.472 373.913C418.781 379.877 418.984 385.154 418.837 391.878C418.823 392.937 418.809 393.996 418.794 395.086C418.257 418.128 410.539 438.688 393.868 454.999C377.28 470.578 357.023 476.539 334.643 476.519C333.052 476.523 333.052 476.523 331.429 476.528C327.886 476.537 324.344 476.538 320.802 476.54C318.257 476.544 315.712 476.549 313.167 476.555C306.259 476.568 299.352 476.574 292.444 476.579C288.124 476.581 283.803 476.586 279.482 476.59C267.499 476.602 255.516 476.613 243.532 476.616C242.383 476.616 242.383 476.616 241.211 476.617C240.443 476.617 239.676 476.617 238.885 476.617C237.329 476.618 235.774 476.618 234.218 476.619C233.447 476.619 232.675 476.619 231.88 476.619C219.395 476.623 206.911 476.641 194.426 476.664C181.581 476.688 168.736 476.7 155.891 476.701C148.69 476.702 141.489 476.708 134.288 476.726C127.507 476.743 120.727 476.745 113.946 476.736C111.468 476.735 108.991 476.74 106.513 476.75C88.707 476.817 71.6446 476.602 55.399 468.378C54.4155 467.886 53.4319 467.394 52.4186 466.886C34.7436 457.329 21.6212 441.618 15.11 422.617C12.1111 412.466 11.2508 403.401 11.2586 392.869C11.2556 391.608 11.2527 390.346 11.2496 389.047C11.2416 385.557 11.2397 382.067 11.239 378.578C11.2372 374.809 11.2296 371.041 11.2229 367.272C11.2093 359.036 11.2033 350.801 11.1989 342.565C11.1961 337.417 11.1919 332.27 11.1874 327.122C11.1752 312.856 11.1649 298.59 11.1615 284.324C11.1613 283.411 11.161 282.499 11.1608 281.559C11.1606 280.644 11.1604 279.73 11.1602 278.787C11.1597 276.934 11.1593 275.081 11.1588 273.228C11.1586 272.309 11.1584 271.39 11.1581 270.443C11.1542 255.561 11.1368 240.679 11.1135 225.797C11.0897 210.5 11.0773 195.203 11.0761 179.905C11.0752 171.324 11.0695 162.743 11.0513 154.161C11.0358 146.851 11.0308 139.542 11.039 132.232C11.0429 128.507 11.0421 124.783 11.028 121.059C10.9251 92.3119 10.9251 92.3119 14.399 80.3785C14.725 79.2379 14.725 79.2379 15.0575 78.0743C21.7751 56.9309 37.1975 42.0757 56.317 31.8121C68.7031 25.8246 81.567 24.226 95.1553 24.238Z" fill="white"/>
<path d="M460.399 174.379C461.762 174.999 461.762 174.999 463.153 175.632C474.927 181.512 482.86 190.68 487.212 203.129C491.172 216.524 490.153 230.072 484.087 242.691C481.436 247.105 478.345 250.846 474.818 254.57C474.222 255.203 473.626 255.836 473.012 256.489C462.223 267.865 451.079 278.906 440.008 290.007C438.741 291.279 437.474 292.55 436.207 293.821C430.263 299.785 424.316 305.746 418.366 311.704C411.537 318.542 404.717 325.389 397.903 332.243C392.602 337.575 387.293 342.898 381.978 348.216C378.818 351.379 375.66 354.545 372.511 357.72C369.555 360.699 366.59 363.669 363.617 366.632C362.534 367.714 361.454 368.8 360.378 369.89C352.792 377.567 344.981 385.167 333.938 386.988C332.806 387.185 331.675 387.382 330.508 387.586C329.359 387.765 328.209 387.944 327.024 388.129C325.882 388.323 324.74 388.518 323.563 388.718C321.288 389.104 319.01 389.479 316.731 389.843C313.481 390.365 310.24 390.93 306.997 391.496C295.067 393.475 285.754 393.282 275.587 386.504C270.625 381.684 267.778 376.276 267.107 369.374C267.093 360.204 268.186 351.458 269.743 342.436C270.151 340.054 270.534 337.669 270.915 335.283C274.215 315.214 284.344 305.29 298.354 291.247C299.529 290.065 300.705 288.883 301.88 287.7C305.703 283.856 309.532 280.018 313.36 276.179C314.686 274.849 316.012 273.519 317.339 272.188C323.567 265.941 329.797 259.697 336.03 253.455C343.196 246.28 350.353 239.096 357.504 231.905C363.054 226.324 368.613 220.751 374.177 215.183C377.49 211.868 380.801 208.549 384.102 205.222C387.208 202.093 390.323 198.974 393.445 195.862C394.582 194.725 395.716 193.585 396.846 192.441C413.378 175.719 436.874 163.422 460.399 174.379ZM421.399 211.129C420.815 211.731 420.231 212.333 419.63 212.953C418.21 214.419 416.803 215.897 415.399 217.379C416.983 221.287 419.665 223.902 422.626 226.8C423.387 227.558 423.387 227.558 424.164 228.33C425.779 229.934 427.402 231.532 429.024 233.129C430.123 234.218 431.222 235.308 432.321 236.398C435.008 239.064 437.702 241.723 440.399 244.379C444.457 242.506 447.326 239.819 450.462 236.691C451.255 235.934 451.255 235.934 452.065 235.162C456.295 230.963 458.755 226.951 459.833 220.972C459.845 214.464 458.287 210.286 453.68 205.648C449.695 202.093 446.671 200.25 441.212 200.066C440.496 200.029 439.781 199.991 439.044 199.953C431.538 201.161 426.45 205.771 421.399 211.129ZM388.762 243.688C388.006 244.422 387.251 245.156 386.472 245.912C385.642 246.729 384.813 247.545 383.958 248.386C383.085 249.238 382.211 250.091 381.312 250.969C378.408 253.807 375.513 256.653 372.622 259.504C372.129 259.989 371.636 260.475 371.128 260.975C366.475 265.561 361.826 270.152 357.187 274.753C351.266 280.624 345.325 286.473 339.353 292.293C335.15 296.392 330.973 300.517 326.813 304.66C324.332 307.13 321.841 309.588 319.323 312.019C305.084 325.188 305.084 325.188 299.443 342.993C299.428 344.11 299.414 345.227 299.399 346.379C299.178 348.069 298.939 349.758 298.669 351.441C298.518 352.74 298.367 354.04 298.212 355.379C298.13 356.069 298.048 356.76 297.964 357.472C297.771 359.107 297.584 360.743 297.399 362.379C301.816 361.832 306.225 361.247 310.631 360.627C312.127 360.422 313.625 360.227 315.124 360.043C324.331 358.904 331.056 357.669 337.399 350.379C338.591 349.217 339.791 348.061 340.997 346.914C342.154 345.759 343.309 344.601 344.462 343.441C345.035 342.872 345.608 342.303 346.198 341.716C348.997 338.911 351.686 336.068 354.239 333.036C359.97 326.463 366.25 320.405 372.426 314.254C373.784 312.898 375.142 311.541 376.499 310.185C380.05 306.638 383.603 303.095 387.157 299.552C390.792 295.927 394.425 292.299 398.057 288.672C405.168 281.571 412.283 274.474 419.399 267.379C417.623 263.56 415.208 260.897 412.243 257.957C411.74 257.452 411.237 256.947 410.719 256.427C409.659 255.365 408.596 254.307 407.531 253.25C405.898 251.627 404.275 249.994 402.653 248.359C401.621 247.328 400.589 246.298 399.555 245.269C399.069 244.779 398.582 244.288 398.081 243.783C393.918 239.677 392.87 239.673 388.762 243.688Z" fill="white"/>
<path d="M116.806 181.238C117.674 181.235 118.542 181.232 119.436 181.229C122.357 181.22 125.277 181.219 128.197 181.217C130.286 181.213 132.376 181.208 134.465 181.202C140.149 181.189 145.833 181.183 151.517 181.178C155.066 181.175 158.615 181.171 162.165 181.167C173.265 181.153 184.366 181.144 195.466 181.14C208.289 181.135 221.112 181.118 233.935 181.089C243.841 181.067 253.747 181.057 263.653 181.056C269.572 181.055 275.491 181.049 281.41 181.031C286.977 181.014 292.544 181.012 298.112 181.021C300.156 181.022 302.199 181.017 304.243 181.007C307.033 180.995 309.822 181.001 312.611 181.011C313.825 180.999 313.825 180.999 315.064 180.987C321.039 181.039 325.147 182.37 329.712 186.441C332.132 190.654 332.585 194.553 332.399 199.379C330.705 204.66 327.793 207.24 323.399 210.379C319.337 211.683 315.256 211.524 311.031 211.519C310.179 211.522 309.327 211.525 308.449 211.528C305.59 211.537 302.73 211.538 299.871 211.54C297.822 211.544 295.774 211.549 293.726 211.555C288.157 211.568 282.589 211.574 277.021 211.579C273.543 211.582 270.064 211.586 266.586 211.59C255.705 211.604 244.824 211.614 233.943 211.617C221.379 211.622 208.816 211.639 196.252 211.668C186.542 211.69 176.833 211.7 167.123 211.701C161.323 211.703 155.523 211.708 149.723 211.726C144.267 211.743 138.811 211.745 133.356 211.736C131.354 211.735 129.353 211.74 127.351 211.75C124.617 211.762 121.883 211.756 119.148 211.746C118.358 211.754 117.568 211.762 116.754 211.77C111.032 211.719 106.137 210.736 101.657 206.879C97.9147 201.923 96.881 198.595 97.3991 192.379C99.0803 188.128 101.394 184.704 105.399 182.379C109.224 181.104 112.82 181.234 116.806 181.238Z" fill="white"/>
<path d="M118.767 110.238C119.619 110.235 120.471 110.232 121.349 110.229C124.209 110.22 127.068 110.219 129.928 110.217C131.976 110.213 134.024 110.208 136.073 110.202C141.641 110.189 147.209 110.183 152.777 110.178C156.256 110.175 159.734 110.171 163.212 110.167C174.093 110.153 184.974 110.144 195.855 110.14C208.419 110.135 220.983 110.118 233.546 110.089C243.256 110.067 252.966 110.057 262.675 110.056C268.475 110.055 274.275 110.049 280.075 110.031C285.531 110.014 290.987 110.012 296.443 110.021C298.444 110.022 300.446 110.017 302.447 110.007C305.181 109.995 307.915 110.001 310.65 110.011C311.44 110.003 312.23 109.995 313.044 109.987C319.629 110.045 324.287 111.45 329.274 116.004C331.926 120.216 332.81 123.42 332.399 128.379C331.111 133.15 329.469 135.647 325.355 138.461C321.073 140.835 317.327 140.937 312.511 140.88C311.64 140.885 310.768 140.891 309.87 140.897C306.962 140.91 304.055 140.895 301.147 140.88C299.057 140.884 296.967 140.89 294.877 140.897C289.21 140.911 283.543 140.899 277.876 140.883C271.944 140.869 266.011 140.876 260.079 140.879C250.118 140.882 240.158 140.868 230.197 140.845C218.681 140.818 207.166 140.817 195.65 140.828C184.57 140.839 173.49 140.833 162.411 140.819C157.696 140.813 152.981 140.813 148.266 140.818C142.715 140.823 137.164 140.813 131.613 140.791C129.576 140.785 127.538 140.785 125.501 140.79C122.72 140.796 119.94 140.783 117.16 140.766C116.353 140.772 115.547 140.778 114.716 140.784C109.882 140.73 106.601 140.019 102.399 137.379C99.0447 133.752 97.5725 131.148 97.0865 126.191C97.4692 121.522 98.7251 118.212 101.399 114.379C106.783 110.206 112.18 110.231 118.767 110.238Z" fill="white"/>
<path d="M118.077 251.716C119.246 251.705 120.416 251.695 121.621 251.684C125.484 251.657 129.345 251.667 133.208 251.679C135.216 251.677 137.224 251.67 139.232 251.664C145.543 251.644 151.853 251.65 158.164 251.672C164.663 251.694 171.16 251.677 177.659 251.639C183.25 251.607 188.84 251.6 194.431 251.611C197.766 251.617 201.099 251.613 204.434 251.591C208.154 251.571 211.872 251.59 215.592 251.618C217.237 251.597 217.237 251.597 218.916 251.576C225.121 251.671 228.67 252.422 233.143 256.855C236.606 261.055 236.866 265.057 236.399 270.379C234.411 275.716 231.492 278.832 226.399 281.379C224.829 281.479 223.255 281.518 221.681 281.526C220.686 281.533 219.69 281.54 218.665 281.547C217.569 281.55 216.473 281.553 215.343 281.556C213.616 281.565 213.616 281.565 211.855 281.575C208.031 281.595 204.207 281.607 200.383 281.617C198.428 281.623 198.428 281.623 196.433 281.629C190.246 281.648 184.059 281.662 177.871 281.671C170.733 281.681 163.594 281.707 156.455 281.747C150.936 281.777 145.417 281.792 139.897 281.796C136.601 281.798 133.306 281.809 130.011 281.832C126.331 281.856 122.652 281.855 118.972 281.849C117.884 281.861 116.796 281.874 115.675 281.887C109.589 281.845 106.031 281.447 101.399 277.379C98.4968 274.076 97.4835 271.497 97.149 267.066C97.5159 261.655 99.1771 258.729 102.786 254.74C107.318 251.102 112.512 251.672 118.077 251.716Z" fill="white"/>
</svg>
