<svg width="1791" height="239" viewBox="0 0 1791 239" fill="none" xmlns="http://www.w3.org/2000/svg">
<path d="M44.0391 94.1797H152.438V43.4492H44.0391V94.1797ZM0.679688 239V0.0898438H152.004C180.477 1.10156 195.074 15.4824 195.797 43.2324V79.6543C195.219 95.9863 187.125 108.127 171.516 116.076C187.125 124.025 195.219 136.094 195.797 152.281V195.641C195.074 223.102 180.838 237.555 153.088 239H0.679688ZM152.438 195.641V137.539H44.0391V195.641H152.438Z" fill="#055D59"/>
<path d="M239.156 0.957031H282.516V239H239.156V0.957031Z" fill="#055D59"/>
<path d="M477.633 130.602V43.4492H369.234V130.602H477.633ZM369.234 173.961V239H325.875V0.0898438H477.199C505.094 1.39062 519.691 15.9883 520.992 43.8828V130.168C519.691 157.629 505.238 172.227 477.633 173.961L521.426 239H473.73L429.938 173.961H369.234Z" fill="#055D59"/>
<path d="M716.109 129.734V43.8828H607.711V129.734H716.109ZM607.711 173.094V239H564.352V43.8828C565.363 15.9883 579.744 1.53516 607.494 0.523438H716.109C744.004 1.24609 758.457 15.7715 759.469 44.0996V239H716.109V173.094H607.711Z" fill="#055D59"/>
<path d="M802.828 0.0898438H997.945V43.4492H922.066V239H878.707V43.4492H802.828V0.0898438Z" fill="#055D59"/>
<path d="M1041.3 0.957031H1084.66V239H1041.3V0.957031Z" fill="#055D59"/>
<path d="M1128.02 239V0.0898438H1171.17L1279.78 162.688V0.0898438H1323.14V239H1279.56L1171.38 75.1016V239H1128.02Z" fill="#055D59"/>
<path d="M1366.5 0.0898438H1550.34V43.4492H1409.86V108.922H1518.26V152.281H1409.86V239H1366.5V0.0898438Z" fill="#055D59"/>
<path d="M1747.2 195.641V43.4492H1638.8V195.641H1747.2ZM1595.44 43.2324C1596.59 15.4824 1611.05 1.10156 1638.8 0.0898438H1746.98C1774.44 1.10156 1788.96 15.4824 1790.55 43.2324V195.641C1789.83 223.68 1775.38 238.133 1747.2 239H1638.8C1610.47 238.133 1596.02 223.68 1595.44 195.641V43.2324Z" fill="#055D59"/>
</svg>
