<svg width="2986" height="670" viewBox="0 0 2986 670" fill="none" xmlns="http://www.w3.org/2000/svg">
<circle cx="335" cy="335" r="335" fill="#F1F1F1"/>
<path d="M455.521 322C400.721 283.6 355.5 147.333 340 84H329C294 247.5 212.521 322 214.021 322C247.621 383.6 267.687 494 273.521 541.5C314.687 541.167 396.821 540.7 396.021 541.5C393.021 457.5 455.521 321.5 455.521 322Z" fill="#FF0000"/>
<rect x="260" y="550" width="150" height="67" fill="#FF0000"/>
<path d="M383 289C388.523 289 393 293.477 393 299V365C393 370.523 388.523 375 383 375H336V289H383Z" stroke="white" stroke-width="10"/>
<path d="M287 289H334V375H287C281.477 375 277 370.523 277 365V299C277 293.477 281.477 289 287 289Z" stroke="white" stroke-width="10"/>
<rect x="329" y="84" width="11" height="328" fill="white"/>
<circle cx="335" cy="65" r="12" fill="#FF0000"/>
<path d="M310.746 325.879H300.492V313.984H310.746V325.879ZM317.582 355V307.148H300.561C296.072 307.308 293.77 309.575 293.656 313.95V323.589C293.747 326.164 295.023 328.078 297.484 329.331C295.023 330.584 293.747 332.487 293.656 335.039V348.164C293.77 352.493 296.015 354.772 300.39 355H317.582ZM300.492 348.164V332.715H310.746V348.164H300.492Z" fill="white"/>
<path d="M368.918 344.714H361.918V307H368.918V344.714ZM368.918 355H361.918V348.143H368.918V355Z" fill="white"/>
<path d="M820.502 539.34C813.564 539.34 808.745 536.254 806.047 530.081C803.349 523.909 802 515.615 802 505.199C802 497.483 802.578 488.803 803.735 479.159L840.738 141.216C855.385 139.673 870.803 138.323 886.992 137.166C903.567 136.008 921.298 135.429 940.185 135.429C975.261 135.429 1003.4 138.709 1024.6 145.267C1045.8 151.439 1061.22 161.084 1070.85 174.2C1080.49 187.317 1085.31 203.712 1085.31 223.387C1085.31 246.148 1078.56 265.823 1065.07 282.411C1051.97 299 1034.62 312.695 1013.04 323.497L993.956 333.334C983.548 338.349 974.297 342.593 966.203 346.065C958.108 349.151 950.592 350.694 943.654 350.694C936.33 350.694 928.814 348.379 921.105 343.75C913.396 338.735 909.541 334.106 909.541 329.862C909.541 326.39 910.312 324.075 911.854 322.918C913.781 321.375 916.287 320.218 919.37 319.446C933.247 315.974 947.316 310.766 961.577 303.822C976.225 296.492 988.366 287.041 998.003 275.467C1008.02 263.894 1013.04 249.427 1013.04 232.067C1013.04 212.778 1004.56 199.083 987.596 190.982C970.636 182.88 943.076 178.83 904.916 178.83L877.741 442.702C877.356 446.56 876.971 450.418 876.585 454.276C876.585 457.748 876.585 461.413 876.585 465.27C876.585 469.514 876.778 473.951 877.163 478.58C877.549 482.823 877.934 487.067 878.32 491.311C924.189 491.311 958.879 484.367 982.392 470.479C1005.9 456.205 1017.66 434.794 1017.66 406.246C1017.66 388.5 1012.84 373.069 1003.21 359.953C993.956 346.836 981.428 337.771 965.625 332.755L1005.52 311.923C1024.41 316.553 1040.4 323.69 1053.51 333.334C1067 342.593 1077.21 353.588 1084.15 366.318C1091.09 379.049 1094.56 393.323 1094.56 409.14C1094.56 433.444 1088.39 455.047 1076.06 473.951C1064.11 492.854 1045.99 507.706 1021.71 518.508C997.425 529.31 967.359 534.711 931.512 534.711C923.803 534.711 914.36 534.904 903.181 535.289C892.003 535.675 880.632 536.254 869.069 537.025C857.891 537.797 847.676 538.376 838.425 538.761C829.56 539.147 823.585 539.34 820.502 539.34Z" fill="#FF0000"/>
<path d="M1147.26 543.969C1140.71 543.969 1136.47 540.305 1134.54 532.975C1132.61 525.259 1131.65 517.351 1131.65 509.249C1131.65 495.361 1132.23 483.016 1133.38 472.215C1134.92 461.413 1136.47 449.454 1138.01 436.337L1158.82 250.585H1199.29C1207 250.585 1212.01 254.828 1214.33 263.315C1216.64 271.802 1217.8 281.447 1217.8 292.249C1217.8 297.65 1217.41 303.436 1216.64 309.609C1215.87 315.395 1214.71 324.461 1213.17 336.806L1202.19 431.129C1199.87 451.19 1197.75 467.971 1195.83 481.473C1193.9 494.975 1192.36 506.549 1191.2 516.193C1190.04 525.838 1188.89 535.096 1187.73 543.969H1147.26ZM1198.14 217.6C1187.35 217.6 1177.9 213.936 1169.81 206.606C1162.1 199.276 1158.24 189.631 1158.24 177.672C1158.24 163.398 1162.87 152.404 1172.12 144.688C1181.37 136.587 1191.97 132.536 1203.92 132.536C1215.1 132.536 1224.35 135.815 1231.67 142.374C1239.38 148.932 1243.24 158.769 1243.24 171.886C1243.24 185.002 1238.8 195.997 1229.94 204.87C1221.07 213.357 1210.47 217.6 1198.14 217.6Z" fill="#FF0000"/>
<path d="M1327.32 520.823L1313.44 433.444C1327.7 396.409 1342.16 364.389 1356.8 337.385C1371.84 309.994 1387.06 288.777 1402.48 273.731C1417.9 258.686 1433.51 251.163 1449.31 251.163C1458.18 251.163 1464.54 254.057 1468.39 259.843C1472.25 265.244 1474.17 272.188 1474.17 280.675C1474.17 288.391 1473.21 295.914 1471.28 303.243C1469.74 310.187 1467.24 315.974 1463.77 320.603C1460.68 325.233 1456.83 327.547 1452.2 327.547C1447.96 327.547 1443.15 326.197 1437.75 323.497C1432.74 320.796 1425.8 319.446 1416.93 319.446C1411.15 319.446 1403.83 325.426 1394.96 337.385C1386.1 349.344 1376.85 365.354 1367.21 385.414C1357.96 405.089 1349.67 426.885 1342.35 450.804C1335.03 474.336 1330.01 497.676 1327.32 520.823ZM1278.75 542.812C1273.74 542.812 1269.88 541.848 1267.19 539.919C1264.87 538.376 1263.52 533.939 1263.14 526.609C1263.14 519.28 1264.1 507.513 1266.03 491.311L1293.2 250.585H1333.68C1339.46 250.585 1344.66 254.828 1349.29 263.315C1353.91 271.802 1356.23 281.447 1356.23 292.249C1356.23 297.264 1354.68 305.172 1351.6 315.974C1348.9 326.39 1345.63 337.578 1341.77 349.537C1337.92 361.11 1334.45 371.333 1331.36 380.206L1316.33 427.657L1337.72 424.185L1327.32 520.823C1326.93 524.68 1324.62 528.152 1320.38 531.239C1316.14 533.939 1311.13 536.061 1305.35 537.604C1299.95 539.533 1294.75 540.883 1289.73 541.655C1284.72 542.426 1281.06 542.812 1278.75 542.812Z" fill="#FF0000"/>
<path d="M1524.68 543.969C1503.09 543.969 1487.68 535.289 1478.42 517.929C1469.17 500.183 1464.55 475.494 1464.55 443.86C1464.55 415.698 1468.6 389.851 1476.69 366.318C1485.17 342.786 1496.54 322.532 1510.8 305.558C1525.06 288.198 1541.64 274.889 1560.53 265.63C1579.41 255.985 1599.46 251.163 1620.66 251.163C1637.23 251.163 1652.26 253.478 1665.75 258.107C1679.63 262.351 1691.39 266.787 1701.02 271.417L1684.26 332.177C1673.85 325.233 1662.09 318.867 1648.99 313.081C1636.27 307.294 1624.32 302.858 1613.14 299.771C1602.35 296.299 1594.25 294.563 1588.86 294.563C1578.06 294.563 1568.04 299.964 1558.79 310.766C1549.93 321.182 1542.8 335.842 1537.4 354.745C1532.39 373.262 1529.88 394.673 1529.88 418.977C1529.88 441.352 1531.42 458.326 1534.51 469.9C1537.98 481.473 1543.37 487.26 1550.7 487.26C1555.71 487.26 1564.19 481.666 1576.14 470.479C1588.09 458.905 1602.54 439.809 1619.5 413.19C1636.46 386.572 1654.38 350.501 1673.27 304.979L1689.46 356.481C1668.65 402.774 1648.79 439.616 1629.91 467.007C1611.02 494.397 1592.9 514.072 1575.56 526.031C1558.21 537.99 1541.25 543.969 1524.68 543.969ZM1662.86 540.497C1655.15 540.497 1650.53 536.832 1648.99 529.503C1647.45 521.787 1646.67 513.686 1646.67 505.199C1646.67 498.64 1647.45 490.539 1648.99 480.895C1650.91 471.25 1653.23 460.834 1655.93 449.646C1658.62 438.459 1661.51 427.464 1664.6 416.662L1677.32 373.262L1660.55 358.217L1674.43 270.838C1686.76 268.909 1697.55 266.401 1706.81 263.315C1716.44 260.229 1724.34 257.529 1730.51 255.214C1737.06 252.899 1741.69 251.742 1744.39 251.742C1748.63 251.742 1750.75 254.057 1750.75 258.686C1750.75 260.615 1748.24 268.909 1743.23 283.569C1738.61 297.842 1733.4 316.167 1727.62 338.542C1722.22 360.917 1718.18 385.221 1715.48 411.454L1703.34 540.497H1662.86Z" fill="#FF0000"/>
<path d="M1835.84 543.969C1817.34 543.969 1804.24 538.569 1796.53 527.767C1789.2 516.965 1786.89 499.991 1789.59 476.844L1812.14 300.35H1793.64C1787.85 300.35 1784.96 297.264 1784.96 291.091C1784.96 287.234 1787.47 281.64 1792.48 274.31C1797.88 266.98 1804.62 258.879 1812.72 250.006C1820.81 241.133 1829.1 232.646 1837.58 224.544C1846.44 216.443 1854.54 209.885 1861.86 204.87C1869.18 199.469 1874.77 196.768 1878.63 196.768C1882.87 196.768 1885.76 198.504 1887.3 201.976C1888.84 205.063 1889.23 209.113 1888.46 214.128L1883.25 259.843H1948.01C1953.79 259.843 1957.07 260.808 1957.84 262.737C1959 264.665 1958.8 267.752 1957.26 271.995C1952.64 285.112 1948.2 293.213 1943.96 296.299C1940.11 299 1932.78 300.35 1921.99 300.35H1875.74L1861.28 424.185C1860.51 431.515 1859.74 438.459 1858.97 445.017C1858.58 451.575 1858.39 457.555 1858.39 462.956C1858.39 471.829 1860.51 478.194 1864.75 482.052C1868.99 485.524 1875.93 487.26 1885.57 487.26C1894.82 487.26 1902.72 485.331 1909.27 481.473C1916.21 477.615 1921.03 475.687 1923.73 475.687C1926.81 475.687 1928.35 477.615 1928.35 481.473C1928.35 485.331 1926.23 490.732 1921.99 497.676C1918.14 504.62 1912.16 511.757 1904.07 519.087C1896.36 526.031 1886.72 531.817 1875.16 536.447C1863.6 541.462 1850.49 543.969 1835.84 543.969Z" fill="#FF0000"/>
<path d="M2149.83 539.34C2144.43 539.34 2140 537.025 2136.53 532.396C2133.44 527.767 2131.13 521.787 2129.59 514.457C2128.05 507.128 2127.28 499.798 2127.28 492.468C2127.28 476.651 2128.24 461.413 2130.17 446.753C2132.1 432.094 2133.83 416.277 2135.37 399.302L2163.12 132.536H2203.6C2213.62 132.536 2220.17 136.394 2223.26 144.11C2226.72 151.439 2228.46 160.312 2228.46 170.728C2228.46 179.987 2228.07 188.281 2227.3 195.611C2226.53 202.941 2225.38 211.814 2223.83 222.23C2222.68 232.646 2221.13 246.92 2219.21 265.051L2190.3 539.34H2149.83Z" fill="#FF0000"/>
<path d="M2453.84 540.497C2449.6 540.497 2446.32 538.569 2444.01 534.711C2442.08 530.467 2440.73 525.838 2439.96 520.823C2439.58 515.808 2439.39 511.757 2439.39 508.671C2439.39 503.27 2439.77 496.326 2440.54 487.839C2441.31 479.351 2442.28 470.479 2443.43 461.22C2444.59 451.575 2445.75 443.281 2446.9 436.337L2456.73 376.156C2457.89 368.44 2459.04 361.303 2460.2 354.745C2461.36 347.801 2461.93 340.471 2461.93 332.755C2461.93 326.969 2460.78 322.532 2458.47 319.446C2456.15 316.36 2453.07 314.817 2449.21 314.817C2444.2 314.817 2435.92 319.639 2424.35 329.283C2412.79 338.928 2400.45 352.816 2387.35 370.948C2374.24 388.693 2362.3 410.104 2351.5 435.18C2341.1 460.255 2334.35 488.224 2331.27 519.087L2316.23 433.444C2327.8 399.881 2340.71 371.526 2354.97 348.379C2369.62 325.233 2384.46 306.522 2399.49 292.249C2414.52 277.975 2428.98 267.559 2442.85 261.001C2457.12 254.442 2469.64 251.163 2480.44 251.163C2492 251.163 2501.25 253.285 2508.19 257.529C2515.51 261.772 2520.72 267.752 2523.8 275.467C2527.27 282.797 2529 291.477 2529 301.507C2529 311.152 2528.23 320.796 2526.69 330.441C2525.53 339.699 2524.19 349.344 2522.64 359.374L2494.89 540.497H2453.84ZM2280.96 542.812C2275.95 542.812 2272.1 541.848 2269.4 539.919C2267.09 538.376 2265.74 533.939 2265.35 526.609C2265.35 519.28 2266.32 507.513 2268.24 491.311L2295.42 250.585H2335.89C2341.67 250.585 2346.88 254.828 2351.5 263.315C2356.13 271.802 2358.44 281.447 2358.44 292.249C2358.44 297.264 2356.9 305.172 2353.82 315.974C2351.12 326.39 2347.84 337.578 2343.99 349.537C2340.13 361.11 2336.66 371.333 2333.58 380.206L2318.55 427.657L2339.94 424.185L2330.69 519.087C2330.3 522.944 2327.99 526.416 2323.75 529.503C2319.51 532.589 2314.5 535.097 2308.72 537.025C2302.94 538.954 2297.35 540.305 2291.95 541.076C2286.94 542.233 2283.28 542.812 2280.96 542.812Z" fill="#FF0000"/>
<path d="M2579.42 661.439C2574.41 661.439 2570.75 659.703 2568.44 656.231C2566.12 653.145 2564.97 648.901 2564.97 643.5C2564.97 635.399 2565.55 626.526 2566.7 616.882L2609.49 262.158C2614.88 217.408 2628.76 184.616 2651.12 163.784C2673.86 142.566 2704.5 131.957 2743.05 131.957C2760.78 131.957 2773.31 134.851 2780.63 140.638C2788.34 146.038 2792.19 154.333 2792.19 165.52C2792.19 172.079 2791.42 178.251 2789.88 184.038C2788.34 189.824 2786.22 194.647 2783.52 198.504C2780.82 201.976 2777.55 203.712 2773.69 203.712C2770.61 203.712 2765.98 201.398 2759.81 196.768C2753.65 191.753 2746.52 186.931 2738.42 182.302C2730.33 177.672 2721.46 175.358 2711.83 175.358C2699.11 175.358 2690.24 181.916 2685.23 195.032C2680.6 207.763 2677.13 224.737 2674.82 245.955L2655.74 414.348C2653.04 437.109 2650.73 460.255 2648.8 483.788C2646.88 506.935 2644.95 528.538 2643.02 548.599C2641.87 558.243 2638.78 569.431 2633.77 582.162C2629.15 594.892 2623.36 607.237 2616.43 619.196C2609.49 631.541 2602.74 641.571 2596.19 649.287C2589.64 657.388 2584.05 661.439 2579.42 661.439ZM2576.53 300.35C2573.83 300.35 2571.91 299.386 2570.75 297.457C2569.59 295.528 2569.4 293.213 2570.17 290.513L2574.22 279.518C2576.92 271.802 2579.81 266.594 2582.89 263.894C2585.98 261.193 2593.49 259.843 2605.44 259.843H2744.2C2749.21 259.843 2750.76 262.929 2748.83 269.102C2744.97 279.904 2740.93 287.812 2736.69 292.827C2732.45 297.842 2724.55 300.35 2712.98 300.35H2576.53Z" fill="#FF0000"/>
<path d="M2833.36 543.391C2800.21 543.391 2774.39 533.746 2755.88 514.457C2737.77 494.783 2728.71 466.042 2728.71 428.236C2728.71 403.16 2732.76 380.013 2740.85 358.796C2749.33 337.192 2760.7 318.289 2774.96 302.086C2789.23 285.883 2805.61 273.345 2824.11 264.473C2843 255.214 2862.85 250.585 2883.66 250.585C2916.81 250.585 2942.06 260.422 2959.4 280.097C2977.13 299.771 2986 329.476 2986 369.212C2986 393.13 2981.95 415.698 2973.86 436.916C2966.15 457.748 2955.36 476.265 2941.48 492.468C2927.6 508.285 2911.41 520.823 2892.91 530.081C2874.41 538.954 2854.56 543.391 2833.36 543.391ZM2847.24 499.991C2861.88 499.991 2874.41 494.59 2884.82 483.788C2895.61 472.986 2903.71 458.134 2909.1 439.23C2914.88 420.327 2917.77 399.109 2917.77 375.577C2917.77 350.501 2913.92 330.634 2906.21 315.974C2898.89 301.314 2886.55 293.985 2869.21 293.985C2854.95 293.985 2842.23 299.386 2831.05 310.187C2820.26 320.989 2811.78 335.842 2805.61 354.745C2799.83 373.262 2796.94 394.48 2796.94 418.398C2796.94 445.017 2801.18 465.271 2809.66 479.159C2818.14 493.047 2830.66 499.991 2847.24 499.991Z" fill="#FF0000"/>
<circle cx="2194.01" cy="67.6697" r="49.1087" fill="#FF0000"/>
</svg>
