<svg width="670" height="670" viewBox="0 0 670 670" fill="none" xmlns="http://www.w3.org/2000/svg">
<circle cx="335" cy="335" r="335" fill="#F1F1F1"/>
<path d="M455.521 322C400.721 283.6 355.5 147.333 340 84H329C294 247.5 212.521 322 214.021 322C247.621 383.6 267.687 494 273.521 541.5C314.687 541.167 396.821 540.7 396.021 541.5C393.021 457.5 455.521 321.5 455.521 322Z" fill="#055D59"/>
<rect x="260" y="550" width="150" height="67" fill="#055D59"/>
<path d="M383 289C388.523 289 393 293.477 393 299V365C393 370.523 388.523 375 383 375H336V289H383Z" stroke="white" stroke-width="10"/>
<path d="M287 289H334V375H287C281.477 375 277 370.523 277 365V299C277 293.477 281.477 289 287 289Z" stroke="white" stroke-width="10"/>
<rect x="329" y="84" width="11" height="328" fill="white"/>
<circle cx="335" cy="65" r="12" fill="#055D59"/>
<path d="M310.746 325.879H300.492V313.984H310.746V325.879ZM317.582 355V307.148H300.561C296.072 307.308 293.77 309.575 293.656 313.95V323.589C293.747 326.164 295.023 328.078 297.484 329.331C295.023 330.584 293.747 332.487 293.656 335.039V348.164C293.77 352.493 296.015 354.772 300.39 355H317.582ZM300.492 348.164V332.715H310.746V348.164H300.492Z" fill="white"/>
<path d="M368.918 344.714H361.918V307H368.918V344.714ZM368.918 355H361.918V348.143H368.918V355Z" fill="white"/>
</svg>
